
        <svg xmlns="http://www.w3.org/2000/svg" xmlns:xlink="http://www.w3.org/1999/xlink" version="1.1" width="3162.3083859332733" 
        height="835.3351623569804" viewBox="0 0 3162.3083859332733 835.3351623569804">
			<rect fill="#ffffff" width="3162.3083859332733" height="835.3351623569804"/>
			<g transform="scale(8.11541929666366) translate(10, 10)">
				<defs id="SvgjsDefs1728"></defs><g id="SvgjsG1729" featureKey="QMusi1-0" transform="matrix(0.8549564146517739,0,0,0.8549564146517739,-1.0816807820054217,-1.2805050962634794)" fill="#d62b70"><path xmlns="http://www.w3.org/2000/svg" d="M78.007,64.671c0.607,0,1.193-0.138,1.742-0.409c0.939-0.466,1.641-1.27,1.976-2.263c0.335-0.994,0.263-2.059-0.203-2.996  c-0.667-1.347-2.015-2.183-3.518-2.183c-0.608,0-1.194,0.138-1.742,0.409c-0.939,0.466-1.641,1.271-1.976,2.263  c-0.335,0.994-0.263,2.059,0.203,2.995C75.155,63.834,76.504,64.671,78.007,64.671z M76.182,60.132  c0.164-0.487,0.508-0.882,0.968-1.11c0.27-0.134,0.557-0.201,0.854-0.201c0.737,0,1.398,0.41,1.726,1.07  c0.472,0.95,0.082,2.107-0.868,2.579c-0.27,0.134-0.557,0.201-0.854,0.201c-0.737,0-1.398-0.41-1.726-1.072  C76.053,61.14,76.018,60.618,76.182,60.132z"></path><path xmlns="http://www.w3.org/2000/svg" d="M90.857,9.318c-0.178-1.947-0.868-3.757-1.994-5.172c-1.364-1.713-3.187-2.702-5.151-2.646  c-3.683,0.014-6.711,3.467-7.083,7.875c-4.406,0.408-7.837,3.463-7.822,7.147c0.007,1.957,0.961,3.778,2.687,5.129  c1.226,0.959,2.74,1.595,4.382,1.858c-5.952,8.962-39.969,58.495-74.004,73.071c-0.508,0.217-0.743,0.805-0.526,1.313  c0.163,0.38,0.532,0.606,0.92,0.606c0.131,0,0.265-0.025,0.393-0.081c9.785-4.19,19.552-11.206,28.664-19.313  c16.075-1.956,30.183-8.925,33.697-10.771c0.945,1.292,2.386,2.195,4.165,2.57c0.6,0.126,1.217,0.188,1.843,0.188  c1.245,0,2.52-0.26,3.748-0.744c1.731,2.84,4.541,4.55,7.247,4.55c0.929,0,1.844-0.2,2.696-0.622  c1.769-0.877,2.993-2.55,3.448-4.712c0.377-1.788,0.182-3.737-0.541-5.578c3.813-2.327,5.565-6.623,3.913-9.953  c-0.877-1.769-2.551-2.994-4.714-3.45c-1.787-0.377-3.737-0.183-5.578,0.541c-2.326-3.813-6.622-5.563-9.954-3.914  c-1.769,0.877-2.993,2.551-3.448,4.713c-0.377,1.789-0.182,3.738,0.542,5.579c-1.689,1.028-3.025,2.461-3.808,4.113  C63.79,63.283,63.643,65,64.121,66.55c-3.125,1.646-15.55,7.821-30.159,10.165C54.964,57.296,72.036,32.822,77.01,25.41  c0.339,1.252,0.9,2.406,1.669,3.372c1.358,1.707,3.179,2.646,5.128,2.646c0.008,0,0.017,0,0.024,0  c3.685-0.015,6.711-3.47,7.082-7.879c1.949-0.177,3.761-0.868,5.177-1.994c1.714-1.363,2.653-3.192,2.646-5.149  C98.723,12.721,95.269,9.691,90.857,9.318z M66.386,62.475c0.717-1.513,2.04-2.806,3.727-3.643c0.495-0.245,0.697-0.845,0.451-1.34  c-0.836-1.687-1.107-3.517-0.762-5.154c0.326-1.55,1.172-2.734,2.38-3.333c2.578-1.278,6.05,0.448,7.738,3.847  c0.122,0.248,0.334,0.422,0.576,0.504c0.243,0.081,0.517,0.07,0.764-0.053c1.686-0.836,3.516-1.107,5.153-0.761  c1.551,0.327,2.734,1.173,3.334,2.382c1.278,2.578-0.447,6.049-3.847,7.737c-0.371,0.184-0.578,0.567-0.554,0.956  c0.008,0.13,0.041,0.26,0.103,0.384c0.836,1.686,1.106,3.516,0.762,5.153c-0.327,1.55-1.173,2.733-2.381,3.332  c-2.579,1.275-6.051-0.445-7.737-3.847c-0.244-0.494-0.846-0.698-1.34-0.451c-1.687,0.835-3.519,1.104-5.155,0.761  c-1.551-0.327-2.734-1.172-3.333-2.382C65.665,65.36,65.708,63.906,66.386,62.475z M94.845,19.989  c-1.295,1.03-3.033,1.601-4.895,1.608c-0.414,0.001-0.769,0.255-0.919,0.616c-0.051,0.12-0.078,0.252-0.078,0.391  c0.015,3.751-2.287,6.813-5.13,6.824c-0.006,0-0.011,0-0.016,0c-1.328,0-2.593-0.671-3.563-1.892  c-1.03-1.294-1.602-3.032-1.608-4.893c0-0.037-0.018-0.068-0.021-0.103c-0.007-0.067-0.019-0.13-0.04-0.194  c-0.02-0.063-0.044-0.119-0.075-0.175c-0.03-0.055-0.063-0.104-0.104-0.153c-0.045-0.053-0.093-0.098-0.146-0.142  c-0.028-0.022-0.045-0.053-0.075-0.072c-0.024-0.016-0.052-0.017-0.077-0.03c-0.06-0.031-0.12-0.053-0.187-0.072  c-0.065-0.019-0.129-0.034-0.195-0.039c-0.027-0.002-0.051-0.016-0.079-0.016c-0.001,0-0.003,0-0.004,0  c-1.821,0.009-3.603-0.551-4.906-1.57c-1.232-0.965-1.914-2.229-1.919-3.562c-0.012-2.845,3.032-5.172,6.785-5.188  c0.552-0.002,0.998-0.451,0.996-1.003C78.574,6.572,80.876,3.511,83.72,3.5c0.006,0,0.011,0,0.016,0  c1.327,0,2.592,0.671,3.563,1.891c1.03,1.294,1.602,3.031,1.608,4.891c0.002,0.413,0.254,0.767,0.611,0.918  c0.12,0.05,0.251,0.078,0.389,0.078c0.001,0,0.003,0,0.004,0c0.009,0,0.02,0,0.03,0c3.739,0,6.785,2.298,6.795,5.135  C96.74,17.745,96.069,19.016,94.845,19.989z"></path><path xmlns="http://www.w3.org/2000/svg" d="M83.755,12.569c-1.04,0.003-2.016,0.412-2.749,1.151c-0.732,0.739-1.134,1.718-1.131,2.76  c0.009,2.139,1.758,3.879,3.898,3.879c0.001,0,0.014,0,0.016,0c2.147-0.01,3.887-1.765,3.878-3.91  C87.66,14.31,85.912,12.569,83.755,12.569z M83.78,18.359l-0.007,1v-1c-1.042,0-1.894-0.847-1.898-1.886  c-0.002-0.507,0.194-0.984,0.551-1.344c0.356-0.359,0.83-0.558,1.343-0.56c1.044,0,1.896,0.846,1.898,1.887  C85.672,17.501,84.825,18.354,83.78,18.359z"></path></g><g id="SvgjsG1730" featureKey="UyNsn2-0" transform="matrix(3.6212203812721917,0,0,3.6212203812721917,100.60999510091473,-5.6548962223445685)" fill="#e986e4"><path d="M4.54 17.38 l4.58 0 l0 2.62 l-8.46 0 l0 -2.26 l0.33 -0.37 l0.84 -0.94 l1.13 -1.26 l1.2 -1.33 l1.04 -1.16 l0.68 -0.74 l-0.32 0.1 l-2.32 0 l0 1.1 l-2.5 -0.76 l0 -2.82 l8.26 0 l0 2.36 z M15.059999999999999 9.44 c0.69334 0 1.34 0.09668 1.94 0.29002 s1.1167 0.50334 1.55 0.93 s0.77334 0.98 1.02 1.66 s0.37 1.5 0.37 2.46 s-0.12334 1.78 -0.37 2.46 s-0.58666 1.2333 -1.02 1.66 s-0.95 0.73666 -1.55 0.93 s-1.2467 0.29 -1.94 0.29 c-0.70666 0 -1.3567 -0.09666 -1.95 -0.29 s-1.1067 -0.50334 -1.54 -0.93 s-0.77334 -0.98 -1.02 -1.66 s-0.37 -1.5 -0.37 -2.46 c0 -0.94666 0.12334 -1.7567 0.37 -2.43 s0.58666 -1.2267 1.02 -1.66 s0.94668 -0.75 1.54 -0.95 s1.2433 -0.3 1.95 -0.3 z M15.059999999999999 17.5 c0.6 0 1.07 -0.2 1.41 -0.6 s0.51 -1.1067 0.51 -2.12 s-0.17 -1.7233 -0.51 -2.13 s-0.81 -0.61 -1.41 -0.61 c-0.58666 0 -1.0567 0.21 -1.41 0.63 s-0.53 1.1233 -0.53 2.11 c0 1.0133 0.17334 1.72 0.52 2.12 s0.82 0.6 1.42 0.6 z M30.259999999999998 5.98 l0.000019531 13.74 c-0.48 0.10666 -0.94666 0.18666 -1.4 0.24 s-0.86668 0.09334 -1.24 0.12 s-0.69334 0.04 -0.96 0.04 l-0.54 0 c-0.90666 0 -1.67 -0.14 -2.29 -0.42 s-1.12 -0.66 -1.5 -1.14 s-0.65666 -1.0367 -0.83 -1.67 s-0.26 -1.31 -0.26 -2.03 c0 -0.92 0.11666 -1.71 0.35 -2.37 s0.56 -1.2033 0.98 -1.63 s0.92 -0.74332 1.5 -0.94998 s1.2233 -0.31 1.93 -0.31 c0.12 0 0.25666 0.01 0.41 0.03 s0.3 0.04334 0.44 0.07 s0.27 0.05666 0.39 0.09 s0.21334 0.07 0.28 0.11 l0 -1.18 l0.06 -0.26 l-1.8 0 l1.34 -2.48 l3.14 0 z M26.44 17.44 c0.2 0 0.39334 -0.0066602 0.58 -0.02 s0.35332 -0.03334 0.49998 -0.06 l0 -5.12 c-0.09334 -0.01334 -0.2 -0.03334 -0.32 -0.06 c-0.10666 -0.02666 -0.23 -0.04666 -0.37 -0.06 s-0.29666 -0.02 -0.47 -0.02 c-0.62666 0 -1.1533 0.21334 -1.58 0.64 s-0.64 1.1333 -0.64 2.12 c0 0.49334 0.06 0.90668 0.18 1.24 s0.28334 0.6 0.49 0.8 s0.45 0.34 0.73 0.42 s0.58 0.12 0.9 0.12 z M35.72 9.56 l0 10.44 l-3.02 0 l0 -7.22 l0.1 -0.72 l-1.72 0 l1.36 -2.5 l3.28 0 z M35.64 8.7 l-3 0 l0 -2.72 l3 0 l0 2.72 z M46.6 5.98 l0.000019531 13.74 c-0.48 0.10666 -0.94666 0.18666 -1.4 0.24 s-0.86668 0.09334 -1.24 0.12 s-0.69334 0.04 -0.96 0.04 l-0.54 0 c-0.90666 0 -1.67 -0.14 -2.29 -0.42 s-1.12 -0.66 -1.5 -1.14 s-0.65666 -1.0367 -0.83 -1.67 s-0.26 -1.31 -0.26 -2.03 c0 -0.92 0.11666 -1.71 0.35 -2.37 s0.56 -1.2033 0.98 -1.63 s0.92 -0.74332 1.5 -0.94998 s1.2233 -0.31 1.93 -0.31 c0.12 0 0.25666 0.01 0.41 0.03 s0.3 0.04334 0.44 0.07 s0.27 0.05666 0.39 0.09 s0.21334 0.07 0.28 0.11 l0 -1.18 l0.06 -0.26 l-1.8 0 l1.34 -2.48 l3.14 0 z M42.78 17.44 c0.2 0 0.39334 -0.0066602 0.58 -0.02 s0.35332 -0.03334 0.49998 -0.06 l0 -5.12 c-0.09334 -0.01334 -0.2 -0.03334 -0.32 -0.06 c-0.10666 -0.02666 -0.23 -0.04666 -0.37 -0.06 s-0.29666 -0.02 -0.47 -0.02 c-0.62666 0 -1.1533 0.21334 -1.58 0.64 s-0.64 1.1333 -0.64 2.12 c0 0.49334 0.06 0.90668 0.18 1.24 s0.28334 0.6 0.49 0.8 s0.45 0.34 0.73 0.42 s0.58 0.12 0.9 0.12 z M52.059999999999995 9.56 l0 10.44 l-3.02 0 l0 -7.22 l0.1 -0.72 l-1.72 0 l1.36 -2.5 l3.28 0 z M51.98 8.7 l-3 0 l0 -2.72 l3 0 l0 2.72 z M58.459999999999994 9.44 c0.69334 0 1.3166 0.096622 1.87 0.28996 s1.0167 0.50668 1.39 0.94002 s0.66 0.99 0.86 1.67 s0.3 1.5 0.3 2.46 l0 0.31 l-0.04 0.63 l-5.6 0 l-0.42 -0.06 c0.01334 0.38666 0.05668 0.69666 0.13002 0.93 s0.18 0.41668 0.32 0.55002 s0.31 0.22668 0.51 0.28002 s0.42666 0.08668 0.68 0.10002 c0.41334 0.02666 0.77 -0.03334 1.07 -0.18 s0.58334 -0.44666 0.85 -0.9 c0.41334 0.13334 0.79334 0.26 1.14 0.38 c0.29334 0.10666 0.56 0.2 0.8 0.28 s0.36 0.11334 0.36 0.1 c-0.48 1 -1.0633 1.73 -1.75 2.19 s-1.51 0.69 -2.47 0.69 c-0.70666 0 -1.3467 -0.09334 -1.92 -0.28 s-1.06 -0.49 -1.46 -0.91 s-0.71 -0.96666 -0.93 -1.64 s-0.33 -1.4967 -0.33 -2.47 c0 -0.94666 0.11 -1.7567 0.33 -2.43 s0.53 -1.2267 0.93 -1.66 s0.88666 -0.75334 1.46 -0.96 s1.2133 -0.31 1.92 -0.31 z M59.559999999999995 13.440000000000001 l0.30004 0.04 c-0.02666 -0.46666 -0.15 -0.83 -0.37 -1.09 s-0.56334 -0.39 -1.03 -0.39 c-0.53334 0 -0.91668 0.13 -1.15 0.39 s-0.37668 0.62334 -0.43002 1.09 c0.06666 -0.01334 0.12666 -0.02334 0.18 -0.03 s0.11334 -0.01 0.18 -0.01 l2.32 0 z M65.13999999999999 12.04 l-1.68 0 l1.32 -2.48 l2.9 0 l0.26 1.12 c0.33334 -0.36 0.73 -0.66 1.19 -0.9 s0.99 -0.36 1.59 -0.36 c1.2133 0 2.1134 0.32334 2.7 0.97 s0.88 1.67 0.88 3.07 l0 6.54 l-3.04 0 l0 -6.02 c0 -0.61334 -0.15 -1.0533 -0.45 -1.32 s-0.68334 -0.4 -1.15 -0.4 c-0.38666 0 -0.73332 0.13 -1.04 0.39 s-0.46 0.69 -0.46 1.29 l0 6.06 l-3.02 0 l0 -7.96 z"></path></g>
			</g>
		</svg>
	